<mxfile host="65bd71144e">
    <diagram id="xS9V1ank_Ieme4rnYVJO" name="Page-1">
        <mxGraphModel dx="1284" dy="515" grid="1" gridSize="10" guides="1" tooltips="1" connect="1" arrows="1" fold="1" page="1" pageScale="1" pageWidth="827" pageHeight="1169" math="0" shadow="0">
            <root>
                <mxCell id="0"/>
                <mxCell id="1" parent="0"/>
                <mxCell id="33" style="edgeStyle=none;html=1;entryX=0.5;entryY=0;entryDx=0;entryDy=0;strokeWidth=3;" parent="1" source="31" target="16" edge="1">
                    <mxGeometry relative="1" as="geometry"/>
                </mxCell>
                <mxCell id="34" style="edgeStyle=orthogonalEdgeStyle;html=1;entryX=0.5;entryY=0;entryDx=0;entryDy=0;strokeWidth=3;" parent="1" source="31" target="22" edge="1">
                    <mxGeometry relative="1" as="geometry"/>
                </mxCell>
                <mxCell id="35" style="edgeStyle=orthogonalEdgeStyle;html=1;entryX=0.5;entryY=0;entryDx=0;entryDy=0;strokeWidth=3;" parent="1" source="31" target="25" edge="1">
                    <mxGeometry relative="1" as="geometry"/>
                </mxCell>
                <mxCell id="31" value="" style="rounded=1;whiteSpace=wrap;html=1;fillColor=#dae8fc;strokeColor=none;arcSize=8;" parent="1" vertex="1">
                    <mxGeometry x="268" y="330" width="291" height="70" as="geometry"/>
                </mxCell>
                <mxCell id="7" style="edgeStyle=none;html=1;entryX=0.5;entryY=0;entryDx=0;entryDy=0;strokeWidth=3;" parent="1" source="3" target="4" edge="1">
                    <mxGeometry relative="1" as="geometry"/>
                </mxCell>
                <mxCell id="3" value="&lt;b&gt;&lt;font style=&quot;font-size: 27px; color: rgb(255, 255, 255);&quot;&gt;Login&lt;/font&gt;&lt;/b&gt;" style="rounded=1;whiteSpace=wrap;html=1;strokeWidth=1;fillColor=#647687;strokeColor=none;fontColor=#ffffff;" parent="1" vertex="1">
                    <mxGeometry x="354" y="120" width="120" height="50" as="geometry"/>
                </mxCell>
                <mxCell id="32" style="edgeStyle=none;html=1;entryX=0.5;entryY=0;entryDx=0;entryDy=0;strokeWidth=3;" parent="1" source="4" target="31" edge="1">
                    <mxGeometry relative="1" as="geometry"/>
                </mxCell>
                <mxCell id="4" value="&lt;b&gt;&lt;font style=&quot;font-size: 27px; color: rgb(255, 255, 255);&quot;&gt;Mahasiswa&lt;/font&gt;&lt;/b&gt;" style="rounded=1;whiteSpace=wrap;html=1;strokeWidth=1;fillColor=#647687;strokeColor=none;fontColor=#ffffff;" parent="1" vertex="1">
                    <mxGeometry x="324" y="240" width="180" height="50" as="geometry"/>
                </mxCell>
                <mxCell id="11" value="&lt;b&gt;&lt;font style=&quot;color: rgb(255, 255, 255);&quot;&gt;Username&lt;/font&gt;&lt;/b&gt;" style="rounded=1;whiteSpace=wrap;html=1;strokeWidth=1;fillColor=#76608a;strokeColor=none;fontColor=#ffffff;fontSize=18;" parent="1" vertex="1">
                    <mxGeometry x="285" y="345" width="116" height="40" as="geometry"/>
                </mxCell>
                <mxCell id="13" value="&lt;b&gt;&lt;font style=&quot;color: rgb(255, 255, 255);&quot;&gt;Password&lt;/font&gt;&lt;/b&gt;" style="rounded=1;whiteSpace=wrap;html=1;strokeWidth=1;fillColor=#76608a;strokeColor=none;fontColor=#ffffff;fontSize=18;" parent="1" vertex="1">
                    <mxGeometry x="427" y="345" width="116" height="40" as="geometry"/>
                </mxCell>
                <mxCell id="47" style="edgeStyle=orthogonalEdgeStyle;html=1;entryX=0.5;entryY=0;entryDx=0;entryDy=0;strokeWidth=3;" parent="1" source="16" target="43" edge="1">
                    <mxGeometry relative="1" as="geometry">
                        <Array as="points">
                            <mxPoint x="410" y="595"/>
                            <mxPoint x="190" y="595"/>
                        </Array>
                    </mxGeometry>
                </mxCell>
                <mxCell id="16" value="" style="rounded=1;whiteSpace=wrap;html=1;fillColor=#d5e8d4;strokeColor=none;arcSize=8;" parent="1" vertex="1">
                    <mxGeometry x="309" y="470" width="210" height="100" as="geometry"/>
                </mxCell>
                <mxCell id="17" value="&lt;b&gt;&lt;font style=&quot;color: rgb(255, 255, 255);&quot;&gt;Valid&lt;/font&gt;&lt;/b&gt;" style="rounded=1;whiteSpace=wrap;html=1;strokeWidth=1;fillColor=#6d8764;strokeColor=none;fontColor=#ffffff;fontSize=18;" parent="1" vertex="1">
                    <mxGeometry x="331" y="481" width="76" height="40" as="geometry"/>
                </mxCell>
                <mxCell id="41" style="edgeStyle=none;html=1;entryX=0;entryY=0.5;entryDx=0;entryDy=0;strokeWidth=3;" parent="1" source="22" target="4" edge="1">
                    <mxGeometry relative="1" as="geometry">
                        <Array as="points">
                            <mxPoint x="30" y="520"/>
                            <mxPoint x="30" y="265"/>
                        </Array>
                    </mxGeometry>
                </mxCell>
                <mxCell id="22" value="" style="rounded=1;whiteSpace=wrap;html=1;fillColor=#d5e8d4;strokeColor=none;arcSize=8;" parent="1" vertex="1">
                    <mxGeometry x="70" y="470" width="210" height="100" as="geometry"/>
                </mxCell>
                <mxCell id="23" value="&lt;b&gt;&lt;font style=&quot;color: rgb(255, 255, 255);&quot;&gt;Valid&lt;/font&gt;&lt;/b&gt;" style="rounded=1;whiteSpace=wrap;html=1;strokeWidth=1;fillColor=#6d8764;strokeColor=none;fontColor=#ffffff;fontSize=18;" parent="1" vertex="1">
                    <mxGeometry x="85" y="480" width="76" height="40" as="geometry"/>
                </mxCell>
                <mxCell id="24" value="&lt;b&gt;&lt;font style=&quot;color: rgb(255, 255, 255);&quot;&gt;Invalid&lt;/font&gt;&lt;/b&gt;" style="rounded=1;whiteSpace=wrap;html=1;strokeWidth=1;fillColor=#e51400;strokeColor=none;fontColor=#ffffff;fontSize=18;" parent="1" vertex="1">
                    <mxGeometry x="175" y="480" width="90" height="40" as="geometry"/>
                </mxCell>
                <mxCell id="40" style="edgeStyle=none;html=1;entryX=1;entryY=0.5;entryDx=0;entryDy=0;strokeWidth=3;" parent="1" source="25" target="4" edge="1">
                    <mxGeometry relative="1" as="geometry">
                        <Array as="points">
                            <mxPoint x="780" y="520"/>
                            <mxPoint x="780" y="265"/>
                        </Array>
                    </mxGeometry>
                </mxCell>
                <mxCell id="25" value="" style="rounded=1;whiteSpace=wrap;html=1;fillColor=#d5e8d4;strokeColor=none;arcSize=8;" parent="1" vertex="1">
                    <mxGeometry x="540" y="470" width="210" height="100" as="geometry"/>
                </mxCell>
                <mxCell id="27" value="&lt;b&gt;&lt;font style=&quot;color: rgb(255, 255, 255);&quot;&gt;Invalid&lt;/font&gt;&lt;/b&gt;" style="rounded=1;whiteSpace=wrap;html=1;strokeWidth=1;fillColor=#e51400;strokeColor=none;fontColor=#ffffff;fontSize=18;" parent="1" vertex="1">
                    <mxGeometry x="647.5" y="481" width="90" height="40" as="geometry"/>
                </mxCell>
                <mxCell id="28" value="&lt;b&gt;&lt;font style=&quot;color: rgb(255, 255, 255);&quot;&gt;Valid&lt;/font&gt;&lt;/b&gt;" style="rounded=1;whiteSpace=wrap;html=1;strokeWidth=1;fillColor=#6d8764;strokeColor=none;fontColor=#ffffff;fontSize=18;" parent="1" vertex="1">
                    <mxGeometry x="421" y="481" width="76" height="40" as="geometry"/>
                </mxCell>
                <mxCell id="29" value="&lt;b&gt;&lt;font style=&quot;color: rgb(255, 255, 255);&quot;&gt;Invalid&lt;/font&gt;&lt;/b&gt;" style="rounded=1;whiteSpace=wrap;html=1;strokeWidth=1;fillColor=#e51400;strokeColor=none;fontColor=#ffffff;fontSize=18;" parent="1" vertex="1">
                    <mxGeometry x="552.5" y="481" width="90" height="40" as="geometry"/>
                </mxCell>
                <mxCell id="36" value="&lt;b&gt;&lt;font style=&quot;color: rgb(255, 255, 255);&quot;&gt;error message&lt;/font&gt;&lt;/b&gt;" style="rounded=1;whiteSpace=wrap;html=1;strokeWidth=1;fillColor=#fa6800;strokeColor=none;fontColor=#000000;fontSize=15;" parent="1" vertex="1">
                    <mxGeometry x="82" y="529" width="185" height="30" as="geometry"/>
                </mxCell>
                <mxCell id="37" value="&lt;b&gt;&lt;font style=&quot;color: rgb(255, 255, 255);&quot;&gt;error message&lt;/font&gt;&lt;/b&gt;" style="rounded=1;whiteSpace=wrap;html=1;strokeWidth=1;fillColor=#fa6800;strokeColor=none;fontColor=#000000;fontSize=15;" parent="1" vertex="1">
                    <mxGeometry x="552.5" y="529" width="185" height="30" as="geometry"/>
                </mxCell>
                <mxCell id="39" value="&lt;b&gt;&lt;font style=&quot;color: rgb(255, 255, 255);&quot;&gt;direc -&amp;gt; beranda&lt;/font&gt;&lt;/b&gt;" style="rounded=1;whiteSpace=wrap;html=1;strokeWidth=1;fillColor=#647687;strokeColor=none;fontColor=#ffffff;fontSize=15;" parent="1" vertex="1">
                    <mxGeometry x="321" y="529" width="185" height="30" as="geometry"/>
                </mxCell>
                <mxCell id="48" style="edgeStyle=none;html=1;entryX=1;entryY=0.5;entryDx=0;entryDy=0;strokeWidth=3;" parent="1" source="43" target="4" edge="1">
                    <mxGeometry relative="1" as="geometry">
                        <Array as="points">
                            <mxPoint x="780" y="650"/>
                            <mxPoint x="780" y="265"/>
                        </Array>
                    </mxGeometry>
                </mxCell>
                <mxCell id="43" value="" style="rounded=1;whiteSpace=wrap;html=1;fillColor=#d5e8d4;strokeColor=none;arcSize=8;" parent="1" vertex="1">
                    <mxGeometry x="69.5" y="620" width="240.5" height="70" as="geometry"/>
                </mxCell>
                <mxCell id="45" value="&lt;b&gt;&lt;font style=&quot;color: rgb(255, 255, 255);&quot;&gt;open&lt;/font&gt;&lt;/b&gt;" style="rounded=1;whiteSpace=wrap;html=1;strokeWidth=1;fillColor=#6d8764;strokeColor=none;fontColor=#ffffff;fontSize=18;" parent="1" vertex="1">
                    <mxGeometry x="82" y="635" width="76" height="40" as="geometry"/>
                </mxCell>
                <mxCell id="46" value="&lt;b&gt;&lt;font style=&quot;color: rgb(255, 255, 255);&quot;&gt;Log-In Page&lt;/font&gt;&lt;/b&gt;" style="rounded=1;whiteSpace=wrap;html=1;strokeWidth=1;fillColor=#647687;strokeColor=none;fontColor=#ffffff;fontSize=15;" parent="1" vertex="1">
                    <mxGeometry x="169" y="635" width="121" height="40" as="geometry"/>
                </mxCell>
                <mxCell id="66" value="" style="edgeStyle=none;html=1;strokeWidth=2;" parent="1" source="63" edge="1">
                    <mxGeometry relative="1" as="geometry">
                        <mxPoint x="450" y="650" as="targetPoint"/>
                    </mxGeometry>
                </mxCell>
                <mxCell id="63" value="" style="shape=mxgraph.azure.azure_alert;fillColor=#FFAB00;strokeColor=none;fontColor=#172B4C;fontSize=18;fontStyle=1;labelPosition=right;verticalLabelPosition=middle;align=left;verticalAlign=middle;html=1;spacingLeft=5;sketch=0;hachureGap=4;pointerEvents=0;fontFamily=Architects Daughter;fontSource=https%3A%2F%2Ffonts.googleapis.com%2Fcss%3Ffamily%3DArchitects%2BDaughter;" parent="1" vertex="1">
                    <mxGeometry x="414" y="680" width="70" height="55" as="geometry"/>
                </mxCell>
                <mxCell id="64" value="Sistem tidak melakukan pengecekan Sesi" style="shape=note2;boundedLbl=1;whiteSpace=wrap;html=1;size=25;verticalAlign=top;align=center;strokeWidth=2;fontStyle=1" parent="1" vertex="1">
                    <mxGeometry x="519" y="680" width="252.5" height="55" as="geometry"/>
                </mxCell>
                <mxCell id="65" style="edgeStyle=none;html=1;entryX=0.8;entryY=0.5;entryDx=0;entryDy=0;entryPerimeter=0;strokeWidth=2;" parent="1" source="64" target="63" edge="1">
                    <mxGeometry relative="1" as="geometry"/>
                </mxCell>
            </root>
        </mxGraphModel>
    </diagram>
</mxfile>